<?xml version="1.0" encoding="UTF-8"?>
<svg xmlns="http://www.w3.org/2000/svg" xmlns:xlink="http://www.w3.org/1999/xlink" width="180px" height="180px" viewBox="0 0 180 180" version="1.1">
<g id="surface1">
<rect x="0" y="0" width="180" height="180" style="fill:rgb(3.921569%,11.372549%,30.19608%);fill-opacity:1;stroke:none;"/>
<path style=" stroke:none;fill-rule:nonzero;fill:rgb(100%,100%,100%);fill-opacity:1;" d="M 53.4375 28.125 C 47.8125 28.125 42.1875 33.75 42.1875 39.375 L 42.1875 140.625 C 42.1875 146.25 47.8125 151.875 53.4375 151.875 L 70.3125 151.875 C 75.9375 151.875 81.5625 146.25 81.5625 140.625 L 81.5625 109.6875 L 98.4375 109.6875 L 98.4375 140.625 C 98.4375 146.25 104.0625 151.875 109.6875 151.875 L 126.5625 151.875 C 132.1875 151.875 137.8125 146.25 137.8125 140.625 L 137.8125 39.375 C 137.8125 33.75 132.1875 28.125 126.5625 28.125 L 109.6875 28.125 C 104.0625 28.125 98.4375 33.75 98.4375 39.375 L 98.4375 70.3125 L 81.5625 70.3125 L 81.5625 39.375 C 81.5625 33.75 75.9375 28.125 70.3125 28.125 Z M 53.4375 28.125 "/>
</g>
</svg>
