<?xml version="1.0" encoding="UTF-8"?>
<svg xmlns="http://www.w3.org/2000/svg" xmlns:xlink="http://www.w3.org/1999/xlink" width="16px" height="16px" viewBox="0 0 16 16" version="1.1">
<g id="surface1">
<rect x="0" y="0" width="16" height="16" style="fill:rgb(3.921569%,11.372549%,30.19608%);fill-opacity:1;stroke:none;"/>
<path style=" stroke:none;fill-rule:nonzero;fill:rgb(100%,100%,100%);fill-opacity:1;" d="M 4.75 2.5 C 4.25 2.5 3.75 3 3.75 3.5 L 3.75 12.5 C 3.75 13 4.25 13.5 4.75 13.5 L 6.25 13.5 C 6.75 13.5 7.25 13 7.25 12.5 L 7.25 9.75 L 8.75 9.75 L 8.75 12.5 C 8.75 13 9.25 13.5 9.75 13.5 L 11.25 13.5 C 11.75 13.5 12.25 13 12.25 12.5 L 12.25 3.5 C 12.25 3 11.75 2.5 11.25 2.5 L 9.75 2.5 C 9.25 2.5 8.75 3 8.75 3.5 L 8.75 6.25 L 7.25 6.25 L 7.25 3.5 C 7.25 3 6.75 2.5 6.25 2.5 Z M 4.75 2.5 "/>
</g>
</svg>
