<?xml version="1.0" encoding="UTF-8"?>
<svg xmlns="http://www.w3.org/2000/svg" xmlns:xlink="http://www.w3.org/1999/xlink" width="32px" height="32px" viewBox="0 0 32 32" version="1.1">
<g id="surface1">
<rect x="0" y="0" width="32" height="32" style="fill:rgb(3.921569%,11.372549%,30.19608%);fill-opacity:1;stroke:none;"/>
<path style=" stroke:none;fill-rule:nonzero;fill:rgb(100%,100%,100%);fill-opacity:1;" d="M 9.5 5 C 8.5 5 7.5 6 7.5 7 L 7.5 25 C 7.5 26 8.5 27 9.5 27 L 12.5 27 C 13.5 27 14.5 26 14.5 25 L 14.5 19.5 L 17.5 19.5 L 17.5 25 C 17.5 26 18.5 27 19.5 27 L 22.5 27 C 23.5 27 24.5 26 24.5 25 L 24.5 7 C 24.5 6 23.5 5 22.5 5 L 19.5 5 C 18.5 5 17.5 6 17.5 7 L 17.5 12.5 L 14.5 12.5 L 14.5 7 C 14.5 6 13.5 5 12.5 5 Z M 9.5 5 "/>
</g>
</svg>
